<svg data-v-fde0c5aa="" xmlns="http://www.w3.org/2000/svg" viewBox="0 0 300 300" class="iconLeft"><!----><defs data-v-fde0c5aa=""><!----></defs><rect data-v-fde0c5aa="" fill="#60b7ca" x="0" y="0" width="300px" height="300px" class="logo-background-square"></rect><defs data-v-fde0c5aa=""><!----></defs><g data-v-fde0c5aa="" id="36640dfb-b9ba-402e-b8e1-89ca30372f07" fill="#FFFFFF" transform="matrix(1.2688151692767855,0,0,1.2688151692767855,72.58330127711031,137.0644291314166)"><path d="M7.49 5.80L7.49 5.80Q7.35 5.28 7.19 5.02L7.19 5.02L7.19 5.02Q7.03 4.76 6.75 4.65L6.75 4.65L6.75 4.65Q6.47 4.55 5.96 4.55L5.96 4.55L5.33 4.55L5.33 4.55Q5.04 4.55 4.95 4.75L4.95 4.75L4.95 4.75Q4.86 4.96 4.86 5.61L4.86 5.61L4.86 11.94L4.86 11.94Q4.86 12.59 5.04 12.84L5.04 12.84L5.04 12.84Q5.22 13.09 5.75 13.24L5.75 13.24L6.08 13.33L5.91 13.80L2.84 13.80L2.66 13.58L2.84 13.33L2.84 13.33Q3.19 12.87 3.33 12.35L3.33 12.35L3.33 12.35Q3.47 11.83 3.47 10.99L3.47 10.99L3.47 5.61L3.47 5.61Q3.47 4.96 3.38 4.75L3.38 4.75L3.38 4.75Q3.29 4.55 3.00 4.55L3.00 4.55L2.37 4.55L2.37 4.55Q1.86 4.55 1.58 4.65L1.58 4.65L1.58 4.65Q1.30 4.76 1.14 5.02L1.14 5.02L1.14 5.02Q0.98 5.28 0.84 5.80L0.84 5.80L0.76 6.12L0.28 5.95L0.28 3.46L0.50 3.28L0.76 3.46L0.76 3.46Q1.15 3.75 2.35 3.75L2.35 3.75L5.98 3.75L5.98 3.75Q7.18 3.75 7.57 3.46L7.57 3.46L7.83 3.28L8.05 3.46L8.05 5.95L7.57 6.12L7.49 5.80ZM13.97 12.75L13.97 12.75Q13.45 13.36 12.74 13.68L12.74 13.68L12.74 13.68Q12.03 14 11.20 14L11.20 14L11.20 14Q10.23 14 9.51 13.55L9.51 13.55L9.51 13.55Q8.78 13.10 8.38 12.29L8.38 12.29L8.38 12.29Q7.98 11.48 7.98 10.42L7.98 10.42L7.98 10.42Q7.98 9.30 8.43 8.45L8.43 8.45L8.43 8.45Q8.88 7.60 9.70 7.13L9.70 7.13L9.70 7.13Q10.51 6.66 11.61 6.66L11.61 6.66L11.61 6.66Q12.38 6.66 12.91 6.95L12.91 6.95L12.91 6.95Q13.45 7.24 13.72 7.71L13.72 7.71L13.72 7.71Q13.99 8.18 13.99 8.72L13.99 8.72L13.99 8.72Q13.99 9.31 13.67 9.86L13.67 9.86L13.67 9.86Q13.36 10.40 12.75 10.75L12.75 10.75L12.75 10.75Q12.15 11.09 11.31 11.09L11.31 11.09L11.31 11.09Q10.86 11.09 10.32 10.92L10.32 10.92L10.32 10.92Q9.77 10.75 9.77 10.43L9.77 10.43L9.77 10.43Q9.77 10.32 9.83 10.22L9.83 10.22L9.83 10.22Q9.90 10.12 9.98 10.12L9.98 10.12L9.98 10.12Q10.02 10.12 10.26 10.21L10.26 10.21L10.26 10.21Q10.50 10.30 10.88 10.30L10.88 10.30L10.88 10.30Q11.72 10.30 12.19 9.83L12.19 9.83L12.19 9.83Q12.66 9.35 12.66 8.71L12.66 8.71L12.66 8.71Q12.66 8.16 12.31 7.76L12.31 7.76L12.31 7.76Q11.96 7.36 11.33 7.36L11.33 7.36L11.33 7.36Q10.43 7.36 9.93 8.16L9.93 8.16L9.93 8.16Q9.42 8.95 9.42 10.42L9.42 10.42L9.42 10.42Q9.42 11.66 9.95 12.37L9.95 12.37L9.95 12.37Q10.49 13.08 11.49 13.08L11.49 13.08L11.49 13.08Q12.73 13.08 13.54 12.28L13.54 12.28L13.54 12.28Q13.59 12.22 13.66 12.22L13.66 12.22L13.66 12.22Q13.78 12.22 13.90 12.36L13.90 12.36L13.90 12.36Q14.03 12.49 14.03 12.63L14.03 12.63L14.03 12.63Q14.03 12.70 13.97 12.75L13.97 12.75ZM17.61 11.56L17.61 11.56Q17.61 12.22 17.71 12.61L17.71 12.61L17.71 12.61Q17.81 13.01 18.06 13.37L18.06 13.37L18.23 13.59L18.06 13.80L15.61 13.80L15.46 13.37L15.75 13.30L15.75 13.30Q16.10 13.22 16.22 13.00L16.22 13.00L16.22 13.00Q16.34 12.78 16.34 12.25L16.34 12.25L16.34 8.32L16.34 8.32Q16.34 8.15 16.27 8.08L16.27 8.08L16.27 8.08Q16.21 8.01 16.06 8.01L16.06 8.01L15.44 8.01L15.32 7.64L15.32 7.64Q15.72 7.28 16.25 7.04L16.25 7.04L16.25 7.04Q16.77 6.80 17.16 6.80L17.16 6.80L17.16 6.80Q17.36 6.80 17.49 6.93L17.49 6.93L17.49 6.93Q17.61 7.06 17.61 7.25L17.61 7.25L17.61 8.75L17.61 8.75Q17.98 7.83 18.68 7.25L18.68 7.25L18.68 7.25Q19.38 6.66 20.15 6.66L20.15 6.66L20.15 6.66Q21 6.66 21.43 7.17L21.43 7.17L21.43 7.17Q21.87 7.67 21.94 8.75L21.94 8.75L21.94 8.75Q22.30 7.83 23.00 7.25L23.00 7.25L23.00 7.25Q23.70 6.66 24.47 6.66L24.47 6.66L24.47 6.66Q25.41 6.66 25.84 7.27L25.84 7.27L25.84 7.27Q26.26 7.87 26.26 9.18L26.26 9.18L26.26 12.57L26.26 12.57Q26.26 13.05 26.68 13.05L26.68 13.05L26.68 13.05Q27.01 13.05 27.38 12.75L27.38 12.75L27.65 13.12L27.65 13.12Q27.29 13.52 26.87 13.76L26.87 13.76L26.87 13.76Q26.45 14 26.08 14L26.08 14L26.08 14Q25.51 14 25.26 13.65L25.26 13.65L25.26 13.65Q25.00 13.30 25.00 12.52L25.00 12.52L25.00 9.18L25.00 9.18Q25.00 7.76 23.97 7.76L23.97 7.76L23.97 7.76Q23.38 7.76 22.93 8.21L22.93 8.21L22.93 8.21Q22.48 8.67 22.22 9.49L22.22 9.49L22.22 9.49Q21.95 10.32 21.94 11.40L21.94 11.40L21.94 11.56L21.94 11.56Q21.94 12.29 22.06 12.72L22.06 12.72L22.06 12.72Q22.18 13.15 22.55 13.59L22.55 13.59L22.39 13.80L20.68 13.80L20.68 9.18L20.68 9.18Q20.68 7.76 19.64 7.76L19.64 7.76L19.64 7.76Q19.04 7.76 18.59 8.23L18.59 8.23L18.59 8.23Q18.13 8.71 17.87 9.58L17.87 9.58L17.87 9.58Q17.61 10.44 17.61 11.56L17.61 11.56ZM30.63 7.55L30.63 7.55Q31.54 6.66 32.65 6.66L32.65 6.66L32.65 6.66Q33.52 6.66 34.20 7.10L34.20 7.10L34.20 7.10Q34.87 7.53 35.25 8.30L35.25 8.30L35.25 8.30Q35.63 9.07 35.63 10.05L35.63 10.05L35.63 10.05Q35.63 11.17 35.23 12.07L35.23 12.07L35.23 12.07Q34.83 12.98 34.13 13.49L34.13 13.49L34.13 13.49Q33.43 14 32.55 14L32.55 14L32.55 14Q31.72 14 31.15 13.62L31.15 13.62L31.15 13.62Q31.02 13.54 31.02 13.37L31.02 13.37L31.02 13.37Q31.02 13.23 31.07 13.13L31.07 13.13L31.07 13.13Q31.12 13.02 31.23 13.02L31.23 13.02L31.23 13.02Q31.29 13.02 31.55 13.13L31.55 13.13L31.55 13.13Q31.81 13.24 32.23 13.24L32.23 13.24L32.23 13.24Q32.77 13.24 33.22 12.87L33.22 12.87L33.22 12.87Q33.66 12.49 33.90 11.82L33.90 11.82L33.90 11.82Q34.15 11.16 34.15 10.33L34.15 10.33L34.15 10.33Q34.15 9.53 33.90 8.91L33.90 8.91L33.90 8.91Q33.66 8.29 33.22 7.94L33.22 7.94L33.22 7.94Q32.77 7.59 32.20 7.59L32.20 7.59L32.20 7.59Q31.35 7.59 30.63 8.13L30.63 8.13L30.63 15.97L30.63 15.97Q30.63 16.51 30.75 16.72L30.75 16.72L30.75 16.72Q30.87 16.94 31.22 17.02L31.22 17.02L31.51 17.09L31.36 17.53L28.92 17.53L28.76 17.32L28.92 17.09L28.92 17.09Q29.18 16.73 29.27 16.34L29.27 16.34L29.27 16.34Q29.37 15.95 29.37 15.29L29.37 15.29L29.37 8.47L29.37 8.47Q29.37 8.25 29.31 8.15L29.31 8.15L29.31 8.15Q29.25 8.05 29.08 8.01L29.08 8.01L28.35 7.85L28.35 7.39L28.35 7.39Q28.57 7.20 29.20 7.01L29.20 7.01L29.20 7.01Q29.83 6.83 30.30 6.83L30.30 6.83L30.30 6.83Q30.63 6.83 30.63 7.48L30.63 7.48L30.63 7.55ZM38.89 12.57L38.89 12.57Q38.89 13.05 39.31 13.05L39.31 13.05L39.31 13.05Q39.66 13.05 40.01 12.75L40.01 12.75L40.28 13.12L40.28 13.12Q39.91 13.52 39.49 13.76L39.49 13.76L39.49 13.76Q39.07 14 38.71 14L38.71 14L38.71 14Q38.14 14 37.88 13.65L37.88 13.65L37.88 13.65Q37.63 13.30 37.63 12.52L37.63 12.52L37.63 4.37L37.63 4.37Q37.63 4.20 37.57 4.13L37.57 4.13L37.57 4.13Q37.51 4.06 37.35 4.06L37.35 4.06L36.74 4.06L36.61 3.70L36.61 3.70Q37.02 3.33 37.53 3.09L37.53 3.09L37.53 3.09Q38.05 2.86 38.46 2.86L38.46 2.86L38.46 2.86Q38.65 2.86 38.78 2.98L38.78 2.98L38.78 2.98Q38.91 3.11 38.91 3.30L38.91 3.30L38.89 12.57ZM47.11 12.75L47.11 12.75Q46.59 13.36 45.88 13.68L45.88 13.68L45.88 13.68Q45.16 14 44.34 14L44.34 14L44.34 14Q43.37 14 42.64 13.55L42.64 13.55L42.64 13.55Q41.92 13.10 41.52 12.29L41.52 12.29L41.52 12.29Q41.12 11.48 41.12 10.42L41.12 10.42L41.12 10.42Q41.12 9.30 41.57 8.45L41.57 8.45L41.57 8.45Q42.01 7.60 42.83 7.13L42.83 7.13L42.83 7.13Q43.65 6.66 44.74 6.66L44.74 6.66L44.74 6.66Q45.51 6.66 46.05 6.95L46.05 6.95L46.05 6.95Q46.59 7.24 46.86 7.71L46.86 7.71L46.86 7.71Q47.12 8.18 47.12 8.72L47.12 8.72L47.12 8.72Q47.12 9.31 46.81 9.86L46.81 9.86L46.81 9.86Q46.49 10.40 45.89 10.75L45.89 10.75L45.89 10.75Q45.29 11.09 44.45 11.09L44.45 11.09L44.45 11.09Q44.00 11.09 43.46 10.92L43.46 10.92L43.46 10.92Q42.91 10.75 42.91 10.43L42.91 10.43L42.91 10.43Q42.91 10.32 42.97 10.22L42.97 10.22L42.97 10.22Q43.04 10.12 43.12 10.12L43.12 10.12L43.12 10.12Q43.16 10.12 43.40 10.21L43.40 10.21L43.40 10.21Q43.64 10.30 44.02 10.30L44.02 10.30L44.02 10.30Q44.86 10.30 45.33 9.83L45.33 9.83L45.33 9.83Q45.79 9.35 45.79 8.71L45.79 8.71L45.79 8.71Q45.79 8.16 45.44 7.76L45.44 7.76L45.44 7.76Q45.09 7.36 44.46 7.36L44.46 7.36L44.46 7.36Q43.57 7.36 43.06 8.16L43.06 8.16L43.06 8.16Q42.56 8.95 42.56 10.42L42.56 10.42L42.56 10.42Q42.56 11.66 43.09 12.37L43.09 12.37L43.09 12.37Q43.62 13.08 44.63 13.08L44.63 13.08L44.63 13.08Q45.86 13.08 46.68 12.28L46.68 12.28L46.68 12.28Q46.73 12.22 46.80 12.22L46.80 12.22L46.80 12.22Q46.91 12.22 47.04 12.36L47.04 12.36L47.04 12.36Q47.17 12.49 47.17 12.63L47.17 12.63L47.17 12.63Q47.17 12.70 47.11 12.75L47.11 12.75ZM52.47 13.80L52.30 13.33L52.63 13.24L52.63 13.24Q53.16 13.09 53.34 12.84L53.34 12.84L53.34 12.84Q53.52 12.59 53.52 11.94L53.52 11.94L53.52 5.61L53.52 5.61Q53.52 4.97 53.34 4.72L53.34 4.72L53.34 4.72Q53.16 4.47 52.63 4.31L52.63 4.31L52.30 4.23L52.47 3.75L55.54 3.75L55.72 3.98L55.54 4.23L55.54 4.23Q55.19 4.69 55.05 5.21L55.05 5.21L55.05 5.21Q54.91 5.73 54.91 6.57L54.91 6.57L54.91 12.04L54.91 12.04Q54.91 12.64 55.08 12.88L55.08 12.88L55.08 12.88Q55.24 13.12 55.76 13.27L55.76 13.27L56.06 13.36L55.90 13.80L52.47 13.80ZM59.54 11.56L59.54 11.56Q59.54 12.22 59.64 12.61L59.64 12.61L59.64 12.61Q59.74 13.01 59.99 13.37L59.99 13.37L60.16 13.59L59.99 13.80L57.54 13.80L57.39 13.37L57.68 13.30L57.68 13.30Q58.03 13.22 58.15 13.00L58.15 13.00L58.15 13.00Q58.27 12.78 58.27 12.25L58.27 12.25L58.27 8.32L58.27 8.32Q58.27 8.15 58.20 8.08L58.20 8.08L58.20 8.08Q58.14 8.01 57.99 8.01L57.99 8.01L57.37 8.01L57.25 7.64L57.25 7.64Q57.65 7.28 58.18 7.04L58.18 7.04L58.18 7.04Q58.70 6.80 59.09 6.80L59.09 6.80L59.09 6.80Q59.29 6.80 59.42 6.93L59.42 6.93L59.42 6.93Q59.54 7.06 59.54 7.25L59.54 7.25L59.54 8.75L59.54 8.75Q59.91 7.84 60.63 7.25L60.63 7.25L60.63 7.25Q61.36 6.66 62.16 6.66L62.16 6.66L62.16 6.66Q63.14 6.66 63.59 7.27L63.59 7.27L63.59 7.27Q64.04 7.87 64.04 9.18L64.04 9.18L64.04 12.57L64.04 12.57Q64.04 13.05 64.46 13.05L64.46 13.05L64.46 13.05Q64.78 13.05 65.16 12.75L65.16 12.75L65.42 13.12L65.42 13.12Q65.06 13.52 64.64 13.76L64.64 13.76L64.64 13.76Q64.22 14 63.85 14L63.85 14L63.85 14Q63.28 14 63.03 13.65L63.03 13.65L63.03 13.65Q62.78 13.30 62.78 12.52L62.78 12.52L62.78 9.18L62.78 9.18Q62.78 7.76 61.57 7.76L61.57 7.76L61.57 7.76Q60.97 7.76 60.52 8.23L60.52 8.23L60.52 8.23Q60.06 8.71 59.80 9.58L59.80 9.58L59.80 9.58Q59.54 10.44 59.54 11.56L59.54 11.56ZM68.56 11.56L68.56 11.56Q68.56 12.22 68.66 12.61L68.66 12.61L68.66 12.61Q68.75 13.01 69.01 13.37L69.01 13.37L69.17 13.59L69.01 13.80L66.56 13.80L66.40 13.37L66.70 13.30L66.70 13.30Q67.05 13.22 67.16 13.00L67.16 13.00L67.16 13.00Q67.28 12.78 67.28 12.25L67.28 12.25L67.28 8.32L67.28 8.32Q67.28 8.15 67.22 8.08L67.22 8.08L67.22 8.08Q67.16 8.01 67.00 8.01L67.00 8.01L66.39 8.01L66.26 7.64L66.26 7.64Q66.67 7.28 67.19 7.04L67.19 7.04L67.19 7.04Q67.72 6.80 68.11 6.80L68.11 6.80L68.11 6.80Q68.31 6.80 68.43 6.93L68.43 6.93L68.43 6.93Q68.56 7.06 68.56 7.25L68.56 7.25L68.56 8.75L68.56 8.75Q68.92 7.84 69.65 7.25L69.65 7.25L69.65 7.25Q70.38 6.66 71.18 6.66L71.18 6.66L71.18 6.66Q72.16 6.66 72.60 7.27L72.60 7.27L72.60 7.27Q73.05 7.87 73.05 9.18L73.05 9.18L73.05 12.57L73.05 12.57Q73.05 13.05 73.47 13.05L73.47 13.05L73.47 13.05Q73.79 13.05 74.17 12.75L74.17 12.75L74.44 13.12L74.44 13.12Q74.07 13.52 73.65 13.76L73.65 13.76L73.65 13.76Q73.23 14 72.87 14L72.87 14L72.87 14Q72.30 14 72.04 13.65L72.04 13.65L72.04 13.65Q71.79 13.30 71.79 12.52L71.79 12.52L71.79 9.18L71.79 9.18Q71.79 7.76 70.59 7.76L70.59 7.76L70.59 7.76Q69.99 7.76 69.53 8.23L69.53 8.23L69.53 8.23Q69.08 8.71 68.82 9.58L68.82 9.58L68.82 9.58Q68.56 10.44 68.56 11.56L68.56 11.56ZM84.18 12.52L84.18 12.52Q83.61 13.33 83.01 13.66L83.01 13.66L83.01 13.66Q82.40 14 81.70 14L81.70 14L81.70 14Q81.03 14 80.46 13.62L80.46 13.62L80.46 13.62Q79.88 13.23 79.54 12.46L79.54 12.46L79.54 12.46Q79.20 11.69 79.20 10.60L79.20 10.60L79.20 10.60Q79.20 9.39 79.64 8.50L79.64 8.50L79.64 8.50Q80.08 7.62 80.90 7.14L80.90 7.14L80.90 7.14Q81.72 6.66 82.82 6.66L82.82 6.66L82.82 6.66Q83.37 6.66 84.36 6.85L84.36 6.85L84.36 6.85Q85.20 6.99 85.62 7.01L85.62 7.01L85.78 7.20L85.61 7.45L85.61 7.45Q85.51 7.59 85.47 7.71L85.47 7.71L85.47 7.71Q85.43 7.83 85.43 7.99L85.43 7.99L85.43 12.57L85.43 12.57Q85.43 13.01 85.85 13.01L85.85 13.01L85.85 13.01Q86.20 13.01 86.55 12.75L86.55 12.75L86.81 13.12L86.81 13.12Q86.45 13.52 86.03 13.76L86.03 13.76L86.03 13.76Q85.61 14 85.26 14L85.26 14L85.26 14Q84.69 14 84.43 13.65L84.43 13.65L84.43 13.65Q84.18 13.30 84.18 12.52L84.18 12.52ZM80.67 10.33L80.67 10.33Q80.67 11.66 81.12 12.29L81.12 12.29L81.12 12.29Q81.58 12.92 82.26 12.92L82.26 12.92L82.26 12.92Q82.82 12.92 83.31 12.61L83.31 12.61L83.31 12.61Q83.80 12.29 84.18 11.65L84.18 11.65L84.18 7.87L84.18 7.87Q83.54 7.43 82.81 7.43L82.81 7.43L82.81 7.43Q81.79 7.43 81.23 8.20L81.23 8.20L81.23 8.20Q80.67 8.96 80.67 10.33L80.67 10.33ZM89.88 11.56L89.88 11.56Q89.88 12.22 89.98 12.61L89.98 12.61L89.98 12.61Q90.08 13.01 90.33 13.37L90.33 13.37L90.50 13.59L90.33 13.80L87.88 13.80L87.72 13.37L88.02 13.30L88.02 13.30Q88.37 13.22 88.49 13.00L88.49 13.00L88.49 13.00Q88.61 12.78 88.61 12.25L88.61 12.25L88.61 8.32L88.61 8.32Q88.61 8.15 88.54 8.08L88.54 8.08L88.54 8.08Q88.48 8.01 88.33 8.01L88.33 8.01L87.71 8.01L87.58 7.64L87.58 7.64Q87.99 7.28 88.52 7.04L88.52 7.04L88.52 7.04Q89.04 6.80 89.43 6.80L89.43 6.80L89.43 6.80Q89.63 6.80 89.75 6.93L89.75 6.93L89.75 6.93Q89.88 7.06 89.88 7.25L89.88 7.25L89.88 8.75L89.88 8.75Q90.24 7.84 90.97 7.25L90.97 7.25L90.97 7.25Q91.70 6.66 92.50 6.66L92.50 6.66L92.50 6.66Q93.48 6.66 93.93 7.27L93.93 7.27L93.93 7.27Q94.37 7.87 94.37 9.18L94.37 9.18L94.37 12.57L94.37 12.57Q94.37 13.05 94.79 13.05L94.79 13.05L94.79 13.05Q95.12 13.05 95.49 12.75L95.49 12.75L95.76 13.12L95.76 13.12Q95.40 13.52 94.98 13.76L94.98 13.76L94.98 13.76Q94.56 14 94.19 14L94.19 14L94.19 14Q93.62 14 93.37 13.65L93.37 13.65L93.37 13.65Q93.11 13.30 93.11 12.52L93.11 12.52L93.11 9.18L93.11 9.18Q93.11 7.76 91.91 7.76L91.91 7.76L91.91 7.76Q91.31 7.76 90.85 8.23L90.85 8.23L90.85 8.23Q90.40 8.71 90.14 9.58L90.14 9.58L90.14 9.58Q89.88 10.44 89.88 11.56L89.88 11.56ZM102.90 12.57L102.90 12.57Q102.90 13.01 103.32 13.01L103.32 13.01L103.32 13.01Q103.67 13.01 104.02 12.75L104.02 12.75L104.29 13.12L104.29 13.12Q103.92 13.52 103.50 13.76L103.50 13.76L103.50 13.76Q103.08 14 102.73 14L102.73 14L102.73 14Q102.16 14 101.91 13.65L101.91 13.65L101.91 13.65Q101.65 13.30 101.65 12.52L101.65 12.52L101.65 12.52Q101.08 13.33 100.48 13.66L100.48 13.66L100.48 13.66Q99.88 14 99.18 14L99.18 14L99.18 14Q98.50 14 97.93 13.62L97.93 13.62L97.93 13.62Q97.36 13.23 97.01 12.46L97.01 12.46L97.01 12.46Q96.67 11.69 96.67 10.60L96.67 10.60L96.67 10.60Q96.67 9.39 97.11 8.50L97.11 8.50L97.11 8.50Q97.55 7.62 98.37 7.14L98.37 7.14L98.37 7.14Q99.19 6.66 100.30 6.66L100.30 6.66L100.30 6.66Q101.02 6.66 101.63 6.85L101.63 6.85L101.63 4.37L101.63 4.37Q101.63 4.20 101.56 4.13L101.56 4.13L101.56 4.13Q101.50 4.06 101.35 4.06L101.35 4.06L100.73 4.06L100.60 3.70L100.60 3.70Q101.01 3.33 101.54 3.09L101.54 3.09L101.54 3.09Q102.06 2.86 102.45 2.86L102.45 2.86L102.45 2.86Q102.65 2.86 102.77 2.98L102.77 2.98L102.77 2.98Q102.90 3.11 102.90 3.30L102.90 3.30L102.90 12.57ZM98.14 10.33L98.14 10.33Q98.14 11.66 98.60 12.29L98.60 12.29L98.60 12.29Q99.05 12.92 99.74 12.92L99.74 12.92L99.74 12.92Q100.30 12.92 100.79 12.61L100.79 12.61L100.79 12.61Q101.28 12.29 101.65 11.65L101.65 11.65L101.65 7.87L101.65 7.87Q101.01 7.43 100.28 7.43L100.28 7.43L100.28 7.43Q99.26 7.43 98.70 8.20L98.70 8.20L98.70 8.20Q98.14 8.96 98.14 10.33L98.14 10.33ZM112.43 13.22L112.43 13.22Q113.25 13.22 113.74 12.80L113.74 12.80L113.74 12.80Q114.24 12.38 114.24 11.63L114.24 11.63L114.24 11.63Q114.24 11.03 113.93 10.61L113.93 10.61L113.93 10.61Q113.62 10.19 113.17 9.93L113.17 9.93L113.17 9.93Q112.71 9.66 111.93 9.31L111.93 9.31L111.93 9.31Q111.03 8.90 110.50 8.57L110.50 8.57L110.50 8.57Q109.96 8.23 109.58 7.67L109.58 7.67L109.58 7.67Q109.20 7.11 109.20 6.27L109.20 6.27L109.20 6.27Q109.20 5.56 109.54 4.94L109.54 4.94L109.54 4.94Q109.89 4.31 110.57 3.93L110.57 3.93L110.57 3.93Q111.26 3.56 112.25 3.56L112.25 3.56L112.25 3.56Q113.16 3.56 113.88 3.81L113.88 3.81L113.88 3.81Q114.60 4.07 115.00 4.54L115.00 4.54L115.00 4.54Q115.40 5.01 115.40 5.61L115.40 5.61L115.40 5.61Q115.40 6.33 114.98 6.79L114.98 6.79L114.98 6.79Q114.55 7.25 113.90 7.25L113.90 7.25L113.90 7.25Q113.61 7.25 113.61 7.08L113.61 7.08L113.61 7.08Q113.61 7.04 113.73 6.85L113.73 6.85L113.73 6.85Q113.85 6.65 113.94 6.41L113.94 6.41L113.94 6.41Q114.03 6.16 114.03 5.81L114.03 5.81L114.03 5.81Q114.03 5.15 113.54 4.75L113.54 4.75L113.54 4.75Q113.05 4.34 112.25 4.34L112.25 4.34L112.25 4.34Q111.43 4.34 110.98 4.81L110.98 4.81L110.98 4.81Q110.53 5.28 110.53 5.95L110.53 5.95L110.53 5.95Q110.53 6.47 110.82 6.85L110.82 6.85L110.82 6.85Q111.12 7.22 111.55 7.48L111.55 7.48L111.55 7.48Q111.99 7.73 112.76 8.08L112.76 8.08L112.76 8.08Q113.68 8.48 114.26 8.84L114.26 8.84L114.26 8.84Q114.84 9.20 115.25 9.79L115.25 9.79L115.25 9.79Q115.65 10.39 115.65 11.27L115.65 11.27L115.65 11.27Q115.65 12.52 114.82 13.26L114.82 13.26L114.82 13.26Q113.99 14 112.43 14L112.43 14L112.43 14Q111.43 14 110.64 13.71L110.64 13.71L110.64 13.71Q109.86 13.43 109.42 12.92L109.42 12.92L109.42 12.92Q108.98 12.40 108.98 11.75L108.98 11.75L108.98 11.75Q108.98 11.03 109.43 10.57L109.43 10.57L109.43 10.57Q109.89 10.11 110.57 10.11L110.57 10.11L110.57 10.11Q110.73 10.11 110.80 10.16L110.80 10.16L110.80 10.16Q110.87 10.21 110.87 10.28L110.87 10.28L110.87 10.28Q110.87 10.32 110.74 10.51L110.74 10.51L110.74 10.51Q110.61 10.70 110.52 10.95L110.52 10.95L110.52 10.95Q110.42 11.20 110.42 11.55L110.42 11.55L110.42 11.55Q110.42 12.29 110.98 12.75L110.98 12.75L110.98 12.75Q111.54 13.22 112.43 13.22L112.43 13.22ZM123.56 12.57L123.56 12.57Q123.56 13.01 123.97 13.01L123.97 13.01L123.97 13.01Q124.29 13.01 124.66 12.75L124.66 12.75L124.92 13.12L124.92 13.12Q124.60 13.51 124.17 13.76L124.17 13.76L124.17 13.76Q123.75 14 123.38 14L123.38 14L123.38 14Q122.82 14 122.56 13.68L122.56 13.68L122.56 13.68Q122.30 13.36 122.30 12.66L122.30 12.66L122.30 12.66Q121.98 13.27 121.34 13.64L121.34 13.64L121.34 13.64Q120.71 14 119.94 14L119.94 14L119.94 14Q118.93 14 118.36 13.39L118.36 13.39L118.36 13.39Q117.80 12.78 117.80 11.68L117.80 11.68L117.80 8.18L117.80 8.18Q117.80 7.87 117.52 7.87L117.52 7.87L116.90 7.87L116.77 7.50L116.77 7.50Q117.14 7.14 117.66 6.90L117.66 6.90L117.66 6.90Q118.19 6.66 118.62 6.66L118.62 6.66L118.62 6.66Q118.82 6.66 118.94 6.79L118.94 6.79L118.94 6.79Q119.07 6.92 119.07 7.11L119.07 7.11L119.07 11.35L119.07 11.35Q119.07 12.19 119.41 12.63L119.41 12.63L119.41 12.63Q119.76 13.06 120.41 13.06L120.41 13.06L120.41 13.06Q121.35 13.06 121.88 12.25L121.88 12.25L121.88 12.25Q122.40 11.44 122.40 10.01L122.40 10.01L122.40 10.01Q122.40 8.97 122.28 8.39L122.28 8.39L122.28 8.39Q122.16 7.81 121.86 7.28L121.86 7.28L121.69 7.06L121.86 6.85L123.56 6.66L123.56 12.57ZM126.49 4.59L126.49 4.59Q126.49 4.33 126.79 4.00L126.79 4.00L126.79 4.00Q127.09 3.67 127.34 3.67L127.34 3.67L127.34 3.67Q127.61 3.67 127.92 3.99L127.92 3.99L127.92 3.99Q128.23 4.31 128.23 4.59L128.23 4.59L128.23 4.59Q128.23 4.86 127.92 5.18L127.92 5.18L127.92 5.18Q127.61 5.50 127.34 5.50L127.34 5.50L127.34 5.50Q127.11 5.50 126.80 5.18L126.80 5.18L126.80 5.18Q126.49 4.86 126.49 4.59L126.49 4.59ZM127.97 12.57L127.97 12.57Q127.97 13.05 128.39 13.05L128.39 13.05L128.39 13.05Q128.74 13.05 129.09 12.75L129.09 12.75L129.36 13.12L129.36 13.12Q129.00 13.52 128.58 13.76L128.58 13.76L128.58 13.76Q128.16 14 127.79 14L127.79 14L127.79 14Q127.22 14 126.97 13.65L126.97 13.65L126.97 13.65Q126.71 13.30 126.71 12.52L126.71 12.52L126.71 8.18L126.71 8.18Q126.71 8.01 126.65 7.94L126.65 7.94L126.65 7.94Q126.59 7.87 126.43 7.87L126.43 7.87L125.82 7.87L125.69 7.50L125.69 7.50Q126.10 7.14 126.62 6.90L126.62 6.90L126.62 6.90Q127.13 6.66 127.54 6.66L127.54 6.66L127.54 6.66Q127.74 6.66 127.86 6.79L127.86 6.79L127.86 6.79Q127.99 6.92 127.99 7.11L127.99 7.11L127.97 12.57ZM132.23 6.85L134.05 6.85L134.05 6.85Q134.05 7.14 133.97 7.38L133.97 7.38L133.97 7.38Q133.88 7.62 133.73 7.73L133.73 7.73L132.23 7.73L132.23 12.24L132.23 12.24Q132.23 12.67 132.36 12.85L132.36 12.85L132.36 12.85Q132.48 13.03 132.76 13.03L132.76 13.03L132.76 13.03Q133.18 13.03 133.71 12.59L133.71 12.59L133.98 12.95L133.98 12.95Q133.62 13.43 133.11 13.71L133.11 13.71L133.11 13.71Q132.61 14 132.16 14L132.16 14L132.16 14Q131.59 14 131.27 13.64L131.27 13.64L131.27 13.64Q130.96 13.29 130.96 12.66L130.96 12.66L130.96 7.73L129.72 7.73L129.72 7.73Q129.72 7.35 129.78 7.24L129.78 7.24L129.78 7.24Q129.84 7.13 130.06 7.07L130.06 7.07L130.06 7.07Q130.80 6.87 131.12 6.43L131.12 6.43L131.12 6.43Q131.43 5.99 131.57 5.29L131.57 5.29L131.57 5.29Q131.61 5.07 131.72 5.01L131.72 5.01L131.72 5.01Q131.82 4.96 132.23 4.96L132.23 4.96L132.23 6.85ZM140.97 12.75L140.97 12.75Q140.45 13.36 139.73 13.68L139.73 13.68L139.73 13.68Q139.02 14 138.19 14L138.19 14L138.19 14Q137.23 14 136.50 13.55L136.50 13.55L136.50 13.55Q135.77 13.10 135.37 12.29L135.37 12.29L135.37 12.29Q134.97 11.48 134.97 10.42L134.97 10.42L134.97 10.42Q134.97 9.30 135.42 8.45L135.42 8.45L135.42 8.45Q135.87 7.60 136.69 7.13L136.69 7.13L136.69 7.13Q137.51 6.66 138.60 6.66L138.60 6.66L138.60 6.66Q139.37 6.66 139.91 6.95L139.91 6.95L139.91 6.95Q140.45 7.24 140.71 7.71L140.71 7.71L140.71 7.71Q140.98 8.18 140.98 8.72L140.98 8.72L140.98 8.72Q140.98 9.31 140.66 9.86L140.66 9.86L140.66 9.86Q140.35 10.40 139.75 10.75L139.75 10.75L139.75 10.75Q139.15 11.09 138.31 11.09L138.31 11.09L138.31 11.09Q137.86 11.09 137.31 10.92L137.31 10.92L137.31 10.92Q136.77 10.75 136.77 10.43L136.77 10.43L136.77 10.43Q136.77 10.32 136.83 10.22L136.83 10.22L136.83 10.22Q136.89 10.12 136.98 10.12L136.98 10.12L136.98 10.12Q137.02 10.12 137.26 10.21L137.26 10.21L137.26 10.21Q137.49 10.30 137.87 10.30L137.87 10.30L137.87 10.30Q138.71 10.30 139.18 9.83L139.18 9.83L139.18 9.83Q139.65 9.35 139.65 8.71L139.65 8.71L139.65 8.71Q139.65 8.16 139.30 7.76L139.30 7.76L139.30 7.76Q138.95 7.36 138.32 7.36L138.32 7.36L138.32 7.36Q137.42 7.36 136.92 8.16L136.92 8.16L136.92 8.16Q136.42 8.95 136.42 10.42L136.42 10.42L136.42 10.42Q136.42 11.66 136.95 12.37L136.95 12.37L136.95 12.37Q137.48 13.08 138.49 13.08L138.49 13.08L138.49 13.08Q139.72 13.08 140.53 12.28L140.53 12.28L140.53 12.28Q140.59 12.22 140.66 12.22L140.66 12.22L140.66 12.22Q140.77 12.22 140.90 12.36L140.90 12.36L140.90 12.36Q141.02 12.49 141.02 12.63L141.02 12.63L141.02 12.63Q141.02 12.70 140.97 12.75L140.97 12.75ZM145.12 13.31L145.12 13.31Q145.70 13.31 146.07 13.00L146.07 13.00L146.07 13.00Q146.44 12.68 146.44 12.18L146.44 12.18L146.44 12.18Q146.44 11.73 146.06 11.45L146.06 11.45L146.06 11.45Q145.67 11.17 144.91 10.85L144.91 10.85L144.91 10.85Q144.23 10.57 143.77 10.30L143.77 10.30L143.77 10.30Q143.32 10.04 143.00 9.61L143.00 9.61L143.00 9.61Q142.67 9.18 142.67 8.55L142.67 8.55L142.67 8.55Q142.67 7.71 143.40 7.19L143.40 7.19L143.40 7.19Q144.12 6.66 145.22 6.66L145.22 6.66L145.22 6.66Q146.22 6.66 146.87 7.06L146.87 7.06L146.87 7.06Q147.53 7.45 147.53 8.11L147.53 8.11L147.53 8.11Q147.53 8.64 147.20 8.98L147.20 8.98L147.20 8.98Q146.87 9.32 146.36 9.32L146.36 9.32L146.36 9.32Q146.06 9.32 146.06 9.14L146.06 9.14L146.06 9.14Q146.06 9.09 146.17 8.86L146.17 8.86L146.17 8.86Q146.27 8.62 146.27 8.36L146.27 8.36L146.27 8.36Q146.27 7.84 145.92 7.59L145.92 7.59L145.92 7.59Q145.57 7.34 145.12 7.34L145.12 7.34L145.12 7.34Q144.55 7.34 144.22 7.62L144.22 7.62L144.22 7.62Q143.89 7.91 143.89 8.36L143.89 8.36L143.89 8.36Q143.89 8.88 144.31 9.19L144.31 9.19L144.31 9.19Q144.72 9.51 145.53 9.84L145.53 9.84L145.53 9.84Q146.20 10.12 146.65 10.37L146.65 10.37L146.65 10.37Q147.10 10.61 147.41 10.99L147.41 10.99L147.41 10.99Q147.71 11.37 147.71 11.90L147.71 11.90L147.71 11.90Q147.71 12.85 146.96 13.43L146.96 13.43L146.96 13.43Q146.20 14 144.94 14L144.94 14L144.94 14Q143.88 14 143.19 13.52L143.19 13.52L143.19 13.52Q142.51 13.05 142.51 12.25L142.51 12.25L142.51 12.25Q142.51 11.77 142.83 11.47L142.83 11.47L142.83 11.47Q143.15 11.16 143.67 11.16L143.67 11.16L143.67 11.16Q143.96 11.16 143.96 11.33L143.96 11.33L143.96 11.33Q143.96 11.37 143.88 11.59L143.88 11.59L143.88 11.59Q143.79 11.80 143.79 12.11L143.79 12.11L143.79 12.11Q143.79 12.70 144.21 13.01L144.21 13.01L144.21 13.01Q144.62 13.31 145.12 13.31L145.12 13.31Z"></path></g><defs data-v-fde0c5aa=""><linearGradient data-v-fde0c5aa="" gradientTransform="rotate(25)" id="6020519c-64ae-4246-9663-bcaed401759e" x1="0%" y1="0%" x2="100%" y2="0%"><stop data-v-fde0c5aa="" offset="0%" stop-color="#FFFFFF" stop-opacity="1"></stop><stop data-v-fde0c5aa="" offset="100%" stop-color="#bec537" stop-opacity="1"></stop></linearGradient></defs><g data-v-fde0c5aa="" id="aceec7e6-ad8e-4237-9da3-767c67a476e9" stroke="none" fill="url(#6020519c-64ae-4246-9663-bcaed401759e)" transform="matrix(0.8725086857856261,0,0,0.8725086857856261,36.0091453743956,136.03986102743)"><path d="M27.377 11.377L16 0 4.623 11.377 16 22.753l11.377-11.376zM16 6.026l5.35 5.35L16 16.727l-5.35-5.35L16 6.026zM27.426 14.969l-5.664 5.664V32h5.664zM10.238 20.633l-5.664-5.664V32h5.664z"></path></g><!----></svg>